<svg xmlns="http://www.w3.org/2000/svg" viewBox="0 0 566.88 423.63"><defs><style>.cls-1{fill:#3aa9d8;stroke:#3aa9d8;stroke-miterlimit:10;}.cls-2{fill:#232323;}</style></defs><title>Asset 8</title><g id="Layer_2" data-name="Layer 2"><g id="Layer_1-2" data-name="Layer 1"><path class="cls-1" d="M362.94,42.64a14.07,14.07,0,0,0,.78-2.61,14.26,14.26,0,1,0-7.07,9.73A116.82,116.82,0,0,1,241.27,247.58c0-.21.11-.41.15-.63a14.29,14.29,0,1,0-5.59,8.78A126.3,126.3,0,0,0,362.94,42.64Zm-7.61-4.24a5.7,5.7,0,1,1-4.51-6.68A5.7,5.7,0,0,1,355.33,38.4ZM233,245.33a5.7,5.7,0,1,1-4.51-6.68A5.7,5.7,0,0,1,233,245.33Z"/><path class="cls-2" d="M179,184.57a14.32,14.32,0,0,0-6.53.27,116.79,116.79,0,0,1,98.13-164.3,14.24,14.24,0,1,0-1.11-9.45A126.31,126.31,0,0,0,164.61,190.45,14.24,14.24,0,1,0,179,184.57ZM277.8,13.16a5.69,5.69,0,1,1,4.51,6.68A5.68,5.68,0,0,1,277.8,13.16ZM181.91,199.64A5.7,5.7,0,1,1,177.4,193,5.7,5.7,0,0,1,181.91,199.64Z"/><path class="cls-2" d="M55.23,275.92v94.52H44.39v-29.7H10.89v57.19H0V303.72H10.89v29.19h33.5v-57Z"/><path class="cls-2" d="M97.91,361.69a17.44,17.44,0,0,0,6.88-1.3,14.6,14.6,0,0,0,5.14-3.62,15.53,15.53,0,0,0,3.22-5.58,22.15,22.15,0,0,0,1.12-7.25V303.72h10.79v40.22a30.83,30.83,0,0,1-1.87,10.89,24.3,24.3,0,0,1-14,14.34,32.19,32.19,0,0,1-22.66,0,24.3,24.3,0,0,1-14-14.34,30.83,30.83,0,0,1-1.87-10.89V303.72H81.6v40.17a22.38,22.38,0,0,0,1.11,7.25,16.1,16.1,0,0,0,3.2,5.61A14.27,14.27,0,0,0,91,360.39,17.4,17.4,0,0,0,97.91,361.69Z"/><path class="cls-2" d="M195.82,303.72v66.72H190.3a4.65,4.65,0,0,1-2.13-.44,5.06,5.06,0,0,1-1.67-1.46l-36.65-47.07c.09.89.16,1.78.21,2.66s.07,1.69.07,2.43v43.88h-9.55V303.72h5.66a8,8,0,0,1,1.18.07,3.33,3.33,0,0,1,.9.25,2.73,2.73,0,0,1,.79.56,8.07,8.07,0,0,1,.79.93l36.7,47.12c-.1-1-.16-1.9-.21-2.83s-.07-1.79-.07-2.59V303.72Z"/><path class="cls-2" d="M257.49,307.75a5.59,5.59,0,0,1-.3,1.81,7.5,7.5,0,0,1-.81,1.66l-35.82,50.47H256.8v8.75H206.38v-4.26a4.82,4.82,0,0,1,.28-1.64,6.91,6.91,0,0,1,.74-1.46l36-50.6h-35v-8.76h49.11Z"/><path class="cls-2" d="M324.45,370.44h-8.39a3.61,3.61,0,0,1-2.32-.71,4.77,4.77,0,0,1-1.34-1.79l-5.56-14.73H278.11l-5.56,14.73a4.49,4.49,0,0,1-1.3,1.72,3.45,3.45,0,0,1-2.31.78h-8.39L287,303.72h11Zm-20.53-25-9.17-24.37a67.93,67.93,0,0,1-2.27-7.18c-.34,1.45-.71,2.78-1.12,4s-.77,2.3-1.11,3.22l-9.17,24.33Z"/><path class="cls-2" d="M364,370.44H353.13V303.72H364Z"/><path class="cls-2" d="M435.56,303.72v66.72h-5.51a4.65,4.65,0,0,1-2.13-.44,5,5,0,0,1-1.67-1.46L389.6,321.47c.09.89.16,1.78.21,2.66s.07,1.69.07,2.43v43.88h-9.55V303.72H386a8.1,8.1,0,0,1,1.19.07,3.33,3.33,0,0,1,.9.25,2.73,2.73,0,0,1,.79.56,8.08,8.08,0,0,1,.78.93l36.7,47.12c-.09-1-.16-1.9-.21-2.83s-.06-1.79-.06-2.59V303.72Z"/><path class="cls-2" d="M462.81,312.48v21.36H488.9v8.75H462.81v27.85H451.92V303.72h41.61v8.76Z"/><path class="cls-2" d="M566.88,337.08a37.65,37.65,0,0,1-2.41,13.67,31.43,31.43,0,0,1-6.78,10.77,31,31,0,0,1-10.52,7.07,37.68,37.68,0,0,1-27.25,0,30.78,30.78,0,0,1-17.35-17.84,40,40,0,0,1,0-27.34,31.52,31.52,0,0,1,6.81-10.8,31,31,0,0,1,10.54-7.08,37.68,37.68,0,0,1,27.25,0,30.84,30.84,0,0,1,10.52,7.08,31.75,31.75,0,0,1,6.78,10.8A37.65,37.65,0,0,1,566.88,337.08Zm-11.07,0a32.26,32.26,0,0,0-1.55-10.33,22,22,0,0,0-4.45-7.79,19.33,19.33,0,0,0-7-4.91,25.85,25.85,0,0,0-18.49,0,19.49,19.49,0,0,0-7,4.91,21.89,21.89,0,0,0-4.5,7.79,34.93,34.93,0,0,0,0,20.71,21.59,21.59,0,0,0,4.5,7.76,19.4,19.4,0,0,0,7,4.87,26.13,26.13,0,0,0,18.49,0,19.24,19.24,0,0,0,7-4.87,21.64,21.64,0,0,0,4.45-7.76A32.44,32.44,0,0,0,555.81,337.08Z"/><path class="cls-1" d="M210.15,401.36h-7.76v21.5h-4v-21.5H190.6V398h19.55Z"/><path class="cls-1" d="M244.69,419.6v3.26H229.17V398h15.51v3.26H233.23v7.49h9.15v3.16h-9.15v7.69Z"/><path class="cls-1" d="M281.36,417.32a.73.73,0,0,1,.57.26l1.61,1.74a10.2,10.2,0,0,1-3.73,2.82,12.82,12.82,0,0,1-5.28,1,12.38,12.38,0,0,1-4.93-.94,10.79,10.79,0,0,1-3.76-2.62,11.76,11.76,0,0,1-2.39-4,15.08,15.08,0,0,1-.84-5.13,14.41,14.41,0,0,1,.89-5.14,11.81,11.81,0,0,1,2.51-4,11.19,11.19,0,0,1,3.86-2.62,12.94,12.94,0,0,1,5-.93,12.12,12.12,0,0,1,4.75.87,11.93,11.93,0,0,1,3.59,2.32l-1.33,1.89a1.67,1.67,0,0,1-.33.32.82.82,0,0,1-.52.14,1.33,1.33,0,0,1-.78-.32,11.64,11.64,0,0,0-1.13-.7,8.24,8.24,0,0,0-1.71-.71,8.5,8.5,0,0,0-2.56-.32,8.24,8.24,0,0,0-3.26.62,7.12,7.12,0,0,0-2.56,1.81,8.41,8.41,0,0,0-1.66,2.9,11.73,11.73,0,0,0-.6,3.89,11.58,11.58,0,0,0,.62,3.91,8.73,8.73,0,0,0,1.71,2.9,7.27,7.27,0,0,0,2.56,1.8,7.88,7.88,0,0,0,3.16.62,12.87,12.87,0,0,0,1.85-.11,6.81,6.81,0,0,0,1.51-.36,7.53,7.53,0,0,0,1.31-.63,8.17,8.17,0,0,0,1.21-.93A1,1,0,0,1,281.36,417.32Z"/><path class="cls-1" d="M323.2,398v24.86h-4V411.79H306.67v11.07h-4.05V398h4.05v10.87h12.49V398Z"/><path class="cls-1" d="M365.27,398v24.86h-2a1.75,1.75,0,0,1-.8-.17,1.8,1.8,0,0,1-.62-.54l-13.66-17.54c0,.33.06.66.08,1s0,.63,0,.91v16.35h-3.56V398h2.11l.44,0a1.15,1.15,0,0,1,.33.1.83.83,0,0,1,.3.2,3.85,3.85,0,0,1,.29.35l13.67,17.56c0-.36-.06-.71-.07-1.05s0-.67,0-1V398Z"/><path class="cls-1" d="M410.12,410.43a14.21,14.21,0,0,1-.89,5.09,12.05,12.05,0,0,1-2.53,4,11.61,11.61,0,0,1-3.92,2.63,14,14,0,0,1-10.15,0,11.55,11.55,0,0,1-3.93-2.63,11.77,11.77,0,0,1-2.54-4,14.87,14.87,0,0,1,0-10.19,11.77,11.77,0,0,1,2.54-4,11.44,11.44,0,0,1,3.93-2.64,14,14,0,0,1,10.15,0,11.49,11.49,0,0,1,3.92,2.64,12.05,12.05,0,0,1,2.53,4A14.3,14.3,0,0,1,410.12,410.43Zm-4.12,0a12.12,12.12,0,0,0-.58-3.85,8.16,8.16,0,0,0-1.66-2.9,7.1,7.1,0,0,0-2.61-1.83,8.89,8.89,0,0,0-3.46-.64,8.77,8.77,0,0,0-3.43.64,7.17,7.17,0,0,0-2.63,1.83,8.18,8.18,0,0,0-1.67,2.9,12.89,12.89,0,0,0,0,7.71,8.18,8.18,0,0,0,1.67,2.9,7.24,7.24,0,0,0,2.63,1.81,9,9,0,0,0,3.43.63,9.08,9.08,0,0,0,3.46-.63,7.17,7.17,0,0,0,2.61-1.81,8.16,8.16,0,0,0,1.66-2.9A12.09,12.09,0,0,0,406,410.43Z"/><path class="cls-1" d="M444.48,419.47v3.39H430.12V398h4v21.47Z"/><path class="cls-1" d="M485.88,410.43a14,14,0,0,1-.9,5.09,11.9,11.9,0,0,1-2.53,4,11.47,11.47,0,0,1-3.91,2.63,14.06,14.06,0,0,1-10.16,0,11.61,11.61,0,0,1-3.92-2.63,11.77,11.77,0,0,1-2.54-4,14.87,14.87,0,0,1,0-10.19,11.77,11.77,0,0,1,2.54-4,11.49,11.49,0,0,1,3.92-2.64,14.06,14.06,0,0,1,10.16,0,11.35,11.35,0,0,1,3.91,2.64,11.9,11.9,0,0,1,2.53,4A14.09,14.09,0,0,1,485.88,410.43Zm-4.13,0a12.12,12.12,0,0,0-.57-3.85,8.16,8.16,0,0,0-1.66-2.9,7.05,7.05,0,0,0-2.62-1.83,9.59,9.59,0,0,0-6.89,0,7.22,7.22,0,0,0-2.62,1.83,8.18,8.18,0,0,0-1.67,2.9,12.89,12.89,0,0,0,0,7.71,8.18,8.18,0,0,0,1.67,2.9A7.29,7.29,0,0,0,470,419a9.73,9.73,0,0,0,6.89,0,7.12,7.12,0,0,0,2.62-1.81,8.16,8.16,0,0,0,1.66-2.9A12.1,12.1,0,0,0,481.75,410.43Z"/><path class="cls-1" d="M526.23,410.62v9.84a14.4,14.4,0,0,1-8.63,2.67,15.06,15.06,0,0,1-5.47-.94,12,12,0,0,1-4.17-2.62,11.63,11.63,0,0,1-2.66-4,13.77,13.77,0,0,1-.93-5.13,14.26,14.26,0,0,1,.9-5.16,11.5,11.5,0,0,1,2.57-4,11.64,11.64,0,0,1,4-2.61,14.66,14.66,0,0,1,5.32-.92A16.24,16.24,0,0,1,520,398a13.9,13.9,0,0,1,2.39.65,11.37,11.37,0,0,1,2,1,11.72,11.72,0,0,1,1.71,1.31L525,402.76a1.17,1.17,0,0,1-.71.54,1.19,1.19,0,0,1-.93-.21l-1.06-.62a9.71,9.71,0,0,0-1.29-.61,9.28,9.28,0,0,0-1.67-.47,12.35,12.35,0,0,0-2.25-.18,9.17,9.17,0,0,0-3.55.65,7.58,7.58,0,0,0-2.7,1.84,8.11,8.11,0,0,0-1.72,2.91,11.22,11.22,0,0,0-.61,3.82,11.5,11.5,0,0,0,.64,4,8.38,8.38,0,0,0,1.81,3,7.65,7.65,0,0,0,2.84,1.85,10.23,10.23,0,0,0,3.72.64,10.34,10.34,0,0,0,2.74-.33,12.62,12.62,0,0,0,2.36-.91v-4.94h-3.47a.89.89,0,0,1-.63-.21.81.81,0,0,1-.22-.57v-2.29Z"/><path class="cls-1" d="M556,413.12v9.74h-4v-9.74L542.91,398h3.54a1.24,1.24,0,0,1,.84.26,2.1,2.1,0,0,1,.52.65l5.09,8.91c.23.45.44.88.63,1.28s.36.8.51,1.19a9.92,9.92,0,0,1,.47-1.2c.18-.4.39-.82.62-1.27l5.06-8.91a2,2,0,0,1,.5-.63,1.25,1.25,0,0,1,.85-.28h3.55Z"/><path class="cls-2" d="M313.56,47V169.77H301.64V137.11H264.8V225l-12-4V96.4h12v32.1h36.84V47Z"/><path class="cls-1" d="M340.86,186a14,14,0,0,0-12.15,20.93A85.94,85.94,0,0,1,196.05,143.3a14,14,0,1,0-9.23-1.83,95,95,0,0,0,149,71.56,14,14,0,1,0,5.09-27ZM188.41,128.38a5.7,5.7,0,1,1,4.51,6.68A5.71,5.71,0,0,1,188.41,128.38Zm158,72.7a5.7,5.7,0,1,1-4.51-6.67A5.7,5.7,0,0,1,346.46,201.08Z"/><path class="cls-2" d="M376.59,134.72A95,95,0,0,0,221,61.81a13.82,13.82,0,0,0-3-.34,14,14,0,1,0,11.09,5.47,85.92,85.92,0,0,1,138.43,65.61,14,14,0,1,0,9.07,2.17Zm-153-58.17a5.7,5.7,0,1,1-4.51-6.68A5.7,5.7,0,0,1,223.6,76.55Zm151,71a5.7,5.7,0,1,1-4.51-6.68A5.7,5.7,0,0,1,374.6,147.55Z"/></g></g></svg>